<?xml version="1.0" encoding="UTF-8" standalone="no"?><svg xmlns="http://www.w3.org/2000/svg" xmlns:xlink="http://www.w3.org/1999/xlink" contentScriptType="application/ecmascript" contentStyleType="text/css" height="150px" preserveAspectRatio="none" style="width:255px;height:150px;" version="1.1" viewBox="0 0 255 150" width="255px" zoomAndPan="magnify"><defs><filter height="300%" id="f1mrlzbuz6avtm" width="300%" x="-1" y="-1"><feGaussianBlur result="blurOut" stdDeviation="2.0"/><feColorMatrix in="blurOut" result="blurOut2" type="matrix" values="0 0 0 0 0 0 0 0 0 0 0 0 0 0 0 0 0 0 .4 0"/><feOffset dx="4.0" dy="4.0" in="blurOut2" result="blurOut3"/><feBlend in="SourceGraphic" in2="blurOut3" mode="normal"/></filter></defs><g><!--MD5=[f7e5aaedf1b25aad9b447cdf8dba2a20]
class Abstraction--><rect codeLine="113" fill="#F8F8F8" filter="url(#f1mrlzbuz6avtm)" height="32" id="Abstraction" style="stroke: #383838; stroke-width: 1.5;" width="93" x="76" y="99"/><ellipse cx="91" cy="115" fill="#B1B1B1" rx="11" ry="11" style="stroke: #383838; stroke-width: 1.0;"/><path d="M87.4219,119.3438 L89.8906,119.3438 L89.8906,111.2656 L87.4219,111.2656 L87.4219,109.1094 L94.8125,109.1094 L94.8125,111.2656 L92.3438,111.2656 L92.3438,119.3438 L94.8125,119.3438 L94.8125,121.5 L87.4219,121.5 L87.4219,119.3438 Z "/><text fill="#000000" font-family="sans-serif" font-size="12" font-style="italic" lengthAdjust="spacingAndGlyphs" textLength="61" x="105" y="119.656">Abstraction</text><!--MD5=[8592407ceb354d1d815dda0f0b2ce5bd]
class Higher level--><rect fill="#F8F8F8" filter="url(#f1mrlzbuz6avtm)" height="32" id="Higher level" style="stroke: #383838; stroke-width: 1.5;" width="99" x="7" y="7"/><ellipse cx="22" cy="23" fill="#C2C2C2" rx="11" ry="11" style="stroke: #383838; stroke-width: 1.0;"/><path d="M21.7969,29.7344 Q19.3125,29.7344 17.9844,28.0938 Q16.6719,26.4219 16.6719,23.3125 Q16.6719,20.1875 17.9844,18.5313 Q19.3125,16.875 21.7969,16.875 Q22.5156,16.875 23.1719,17.0313 Q23.8125,17.1875 24.375,17.4844 L24.375,20.2031 Q24.0156,19.8594 23.7188,19.6719 Q23.4219,19.4688 23.1563,19.3438 Q22.8438,19.2031 22.5313,19.1406 Q22.2344,19.0781 21.9219,19.0781 Q20.5938,19.0781 19.9063,20.1406 Q19.2188,21.2344 19.2188,23.3125 Q19.2188,25.4063 19.9063,26.4688 Q20.5938,27.5469 21.9219,27.5469 Q22.5625,27.5469 23.1563,27.2656 Q23.4531,27.1406 23.7344,26.9531 Q24.0313,26.75 24.375,26.4219 L24.375,29.1406 Q23.7969,29.4375 23.1563,29.5938 Q22.5156,29.7344 21.7969,29.7344 Z "/><text fill="#000000" font-family="sans-serif" font-size="12" lengthAdjust="spacingAndGlyphs" textLength="67" x="36" y="27.656">Higher level</text><!--MD5=[418d690f37ae5809a761dd6bc23d3019]
class Lower level--><rect fill="#F8F8F8" filter="url(#f1mrlzbuz6avtm)" height="32" id="Lower level" style="stroke: #383838; stroke-width: 1.5;" width="95" x="141" y="7"/><ellipse cx="156" cy="23" fill="#C2C2C2" rx="11" ry="11" style="stroke: #383838; stroke-width: 1.0;"/><path d="M155.7969,29.7344 Q153.3125,29.7344 151.9844,28.0938 Q150.6719,26.4219 150.6719,23.3125 Q150.6719,20.1875 151.9844,18.5313 Q153.3125,16.875 155.7969,16.875 Q156.5156,16.875 157.1719,17.0313 Q157.8125,17.1875 158.375,17.4844 L158.375,20.2031 Q158.0156,19.8594 157.7188,19.6719 Q157.4219,19.4688 157.1563,19.3438 Q156.8438,19.2031 156.5313,19.1406 Q156.2344,19.0781 155.9219,19.0781 Q154.5938,19.0781 153.9063,20.1406 Q153.2188,21.2344 153.2188,23.3125 Q153.2188,25.4063 153.9063,26.4688 Q154.5938,27.5469 155.9219,27.5469 Q156.5625,27.5469 157.1563,27.2656 Q157.4531,27.1406 157.7344,26.9531 Q158.0313,26.75 158.375,26.4219 L158.375,29.1406 Q157.7969,29.4375 157.1563,29.5938 Q156.5156,29.7344 155.7969,29.7344 Z "/><text fill="#000000" font-family="sans-serif" font-size="12" lengthAdjust="spacingAndGlyphs" textLength="63" x="170" y="27.656">Lower level</text><!--MD5=[069d97fe446c299662dbb625015a55c5]
link Higher level to Abstraction--><path codeLine="114" d="M67.446,39.2673 C78.7022,54.6167 96.0846,78.3199 108.247,94.9046 " fill="none" id="Higher level-to-Abstraction" style="stroke: #383838; stroke-width: 1.0; stroke-dasharray: 7.0,7.0;"/><polygon fill="#383838" points="111.219,98.9582,109.1227,89.335,108.2623,94.9261,102.6713,94.0657,111.219,98.9582" style="stroke: #383838; stroke-width: 1.0;"/><!--MD5=[aecab54becd42c761e52e3a90436e922]
link Lower level to Abstraction--><path codeLine="115" d="M177.054,39.2673 C168.373,51.1045 156.049,67.91 145.286,82.5874 " fill="none" id="Lower level-to-Abstraction" style="stroke: #383838; stroke-width: 1.0; stroke-dasharray: 7.0,7.0;"/><polygon fill="none" points="150.753,86.9696,133.281,98.9582,139.463,78.6905,150.753,86.9696" style="stroke: #383838; stroke-width: 1.0;"/><!--MD5=[1f5b70fb2d1eed7d131dc2dd88169a08]
@startuml after_dip
skinparam monochrome true
interface Abstraction
"Higher level" ..> Abstraction
"Lower level" ..|> Abstraction
hide members
@enduml

PlantUML version 1.2020.16(Sun Aug 23 22:20:43 CEST 2020)
(GPL source distribution)
Java Runtime: OpenJDK Runtime Environment
JVM: OpenJDK 64-Bit Server VM
Default Encoding: UTF-8
Language: sv
Country: SE
--></g></svg>