<?xml version="1.0" encoding="UTF-8" standalone="no"?><svg xmlns="http://www.w3.org/2000/svg" xmlns:xlink="http://www.w3.org/1999/xlink" contentScriptType="application/ecmascript" contentStyleType="text/css" height="150px" preserveAspectRatio="none" style="width:125px;height:150px;" version="1.1" viewBox="0 0 125 150" width="125px" zoomAndPan="magnify"><defs><filter height="300%" id="f5152hyfkryzw" width="300%" x="-1" y="-1"><feGaussianBlur result="blurOut" stdDeviation="2.0"/><feColorMatrix in="blurOut" result="blurOut2" type="matrix" values="0 0 0 0 0 0 0 0 0 0 0 0 0 0 0 0 0 0 .4 0"/><feOffset dx="4.0" dy="4.0" in="blurOut2" result="blurOut3"/><feBlend in="SourceGraphic" in2="blurOut3" mode="normal"/></filter></defs><g><!--MD5=[8592407ceb354d1d815dda0f0b2ce5bd]
class Higher level--><rect fill="#F8F8F8" filter="url(#f5152hyfkryzw)" height="32" id="Higher level" style="stroke: #383838; stroke-width: 1.5;" width="99" x="7" y="7"/><ellipse cx="22" cy="23" fill="#C2C2C2" rx="11" ry="11" style="stroke: #383838; stroke-width: 1.0;"/><path d="M21.7969,29.7344 Q19.3125,29.7344 17.9844,28.0938 Q16.6719,26.4219 16.6719,23.3125 Q16.6719,20.1875 17.9844,18.5313 Q19.3125,16.875 21.7969,16.875 Q22.5156,16.875 23.1719,17.0313 Q23.8125,17.1875 24.375,17.4844 L24.375,20.2031 Q24.0156,19.8594 23.7188,19.6719 Q23.4219,19.4688 23.1563,19.3438 Q22.8438,19.2031 22.5313,19.1406 Q22.2344,19.0781 21.9219,19.0781 Q20.5938,19.0781 19.9063,20.1406 Q19.2188,21.2344 19.2188,23.3125 Q19.2188,25.4063 19.9063,26.4688 Q20.5938,27.5469 21.9219,27.5469 Q22.5625,27.5469 23.1563,27.2656 Q23.4531,27.1406 23.7344,26.9531 Q24.0313,26.75 24.375,26.4219 L24.375,29.1406 Q23.7969,29.4375 23.1563,29.5938 Q22.5156,29.7344 21.7969,29.7344 Z "/><text fill="#000000" font-family="sans-serif" font-size="12" lengthAdjust="spacingAndGlyphs" textLength="67" x="36" y="27.656">Higher level</text><!--MD5=[418d690f37ae5809a761dd6bc23d3019]
class Lower level--><rect fill="#F8F8F8" filter="url(#f5152hyfkryzw)" height="32" id="Lower level" style="stroke: #383838; stroke-width: 1.5;" width="95" x="9" y="99"/><ellipse cx="24" cy="115" fill="#C2C2C2" rx="11" ry="11" style="stroke: #383838; stroke-width: 1.0;"/><path d="M23.7969,121.7344 Q21.3125,121.7344 19.9844,120.0938 Q18.6719,118.4219 18.6719,115.3125 Q18.6719,112.1875 19.9844,110.5313 Q21.3125,108.875 23.7969,108.875 Q24.5156,108.875 25.1719,109.0313 Q25.8125,109.1875 26.375,109.4844 L26.375,112.2031 Q26.0156,111.8594 25.7188,111.6719 Q25.4219,111.4688 25.1563,111.3438 Q24.8438,111.2031 24.5313,111.1406 Q24.2344,111.0781 23.9219,111.0781 Q22.5938,111.0781 21.9063,112.1406 Q21.2188,113.2344 21.2188,115.3125 Q21.2188,117.4063 21.9063,118.4688 Q22.5938,119.5469 23.9219,119.5469 Q24.5625,119.5469 25.1563,119.2656 Q25.4531,119.1406 25.7344,118.9531 Q26.0313,118.75 26.375,118.4219 L26.375,121.1406 Q25.7969,121.4375 25.1563,121.5938 Q24.5156,121.7344 23.7969,121.7344 Z "/><text fill="#000000" font-family="sans-serif" font-size="12" lengthAdjust="spacingAndGlyphs" textLength="63" x="38" y="119.656">Lower level</text><!--MD5=[c0ab70ad34d733ba91f30307dc462839]
link Higher level to Lower level--><path codeLine="103" d="M56.25,39.2673 C56.25,54.2264 56.25,77.1201 56.25,93.6261 " fill="none" id="Higher level-to-Lower level" style="stroke: #383838; stroke-width: 1.0; stroke-dasharray: 7.0,7.0;"/><polygon fill="#383838" points="56.25,98.9582,60.25,89.9582,56.25,93.9582,52.25,89.9582,56.25,98.9582" style="stroke: #383838; stroke-width: 1.0;"/><!--MD5=[cfe13904edca68353b017b119bafd3c9]
@startuml before_dip
skinparam monochrome true
"Higher level" ..> "Lower level"
hide members
@enduml

PlantUML version 1.2020.16(Sun Aug 23 22:20:43 CEST 2020)
(GPL source distribution)
Java Runtime: OpenJDK Runtime Environment
JVM: OpenJDK 64-Bit Server VM
Default Encoding: UTF-8
Language: sv
Country: SE
--></g></svg>