<?xml version="1.0" encoding="UTF-8" standalone="no"?>
<svg
   xmlns:dc="http://purl.org/dc/elements/1.1/"
   xmlns:cc="http://creativecommons.org/ns#"
   xmlns:rdf="http://www.w3.org/1999/02/22-rdf-syntax-ns#"
   xmlns:svg="http://www.w3.org/2000/svg"
   xmlns="http://www.w3.org/2000/svg"
   xmlns:xlink="http://www.w3.org/1999/xlink"
   xmlns:sodipodi="http://sodipodi.sourceforge.net/DTD/sodipodi-0.dtd"
   xmlns:inkscape="http://www.inkscape.org/namespaces/inkscape"
   sodipodi:docname="turbines.svg"
   inkscape:version="1.0 (1.0+r73+1)"
   id="svg1158"
   version="1.1"
   viewBox="0 0 354.20331 204.72143"
   height="204.72144mm"
   width="354.20331mm">
  <defs
     id="defs1152">
    <marker
       inkscape:stockid="Arrow1Lend"
       orient="auto"
       refY="0"
       refX="0"
       id="marker2405"
       style="overflow:visible"
       inkscape:isstock="true">
      <path
         id="path2403"
         d="M 0,0 5,-5 -12.5,0 5,5 Z"
         style="fill:#000000;fill-opacity:1;fill-rule:evenodd;stroke:#000000;stroke-width:1pt;stroke-opacity:1"
         transform="matrix(-0.8,0,0,-0.8,-10,0)" />
    </marker>
    <marker
       inkscape:collect="always"
       inkscape:isstock="true"
       style="overflow:visible"
       id="Arrow1Lend"
       refX="0"
       refY="0"
       orient="auto"
       inkscape:stockid="Arrow1Lend">
      <path
         transform="matrix(-0.8,0,0,-0.8,-10,0)"
         style="fill:#3e3e3e;fill-opacity:1;fill-rule:evenodd;stroke:#3e3e3e;stroke-width:1pt;stroke-opacity:1"
         d="M 0,0 5,-5 -12.5,0 5,5 Z"
         id="path1878" />
    </marker>
    <marker
       inkscape:isstock="true"
       style="overflow:visible"
       id="Arrow1Lstart"
       refX="0"
       refY="0"
       orient="auto"
       inkscape:stockid="Arrow1Lstart">
      <path
         transform="matrix(0.8,0,0,0.8,10,0)"
         style="fill:#000000;fill-opacity:1;fill-rule:evenodd;stroke:#000000;stroke-width:1pt;stroke-opacity:1"
         d="M 0,0 5,-5 -12.5,0 5,5 Z"
         id="path1875" />
    </marker>
    <linearGradient
       id="linearGradient1835"
       inkscape:collect="always">
      <stop
         id="stop1831"
         offset="0"
         style="stop-color:#f7f7f7;stop-opacity:1" />
      <stop
         id="stop1833"
         offset="1"
         style="stop-color:#d1d1d1;stop-opacity:1" />
    </linearGradient>
    <linearGradient
       gradientUnits="userSpaceOnUse"
       y2="133.01398"
       x2="141.78413"
       y1="133.01398"
       x1="138.65704"
       id="linearGradient1837"
       xlink:href="#linearGradient1835"
       inkscape:collect="always" />
    <linearGradient
       gradientUnits="userSpaceOnUse"
       y2="130.60716"
       x2="138.35472"
       y1="130.60716"
       x1="125.68896"
       id="linearGradient1839"
       xlink:href="#linearGradient1835"
       inkscape:collect="always" />
    <linearGradient
       gradientUnits="userSpaceOnUse"
       y2="109.01261"
       x2="162.18935"
       y1="109.01261"
       x1="127.17161"
       id="linearGradient1841"
       xlink:href="#linearGradient1835"
       inkscape:collect="always" />
    <linearGradient
       gradientUnits="userSpaceOnUse"
       y2="127.93308"
       x2="112.12101"
       y1="127.93308"
       x1="108.40444"
       id="linearGradient1843"
       xlink:href="#linearGradient1835"
       inkscape:collect="always" />
    <linearGradient
       gradientUnits="userSpaceOnUse"
       y2="122.59213"
       x2="108.51218"
       y1="122.59213"
       x1="104.20719"
       id="linearGradient1845"
       xlink:href="#linearGradient1835"
       inkscape:collect="always" />
    <linearGradient
       gradientUnits="userSpaceOnUse"
       y2="98.871414"
       x2="131.15173"
       y1="98.871414"
       x1="84.657883"
       id="linearGradient1847"
       xlink:href="#linearGradient1835"
       inkscape:collect="always" />
  </defs>
  <sodipodi:namedview
     inkscape:window-maximized="1"
     inkscape:window-y="12"
     inkscape:window-x="12"
     inkscape:window-height="1052"
     inkscape:window-width="1892"
     showgrid="false"
     inkscape:document-rotation="0"
     inkscape:current-layer="layer1"
     inkscape:document-units="mm"
     inkscape:cy="736.36949"
     inkscape:cx="388.86575"
     inkscape:zoom="0.49497475"
     inkscape:pageshadow="2"
     inkscape:pageopacity="0.0"
     borderopacity="1.0"
     bordercolor="#666666"
     pagecolor="#ffffff"
     id="base" />
  <metadata
     id="metadata1155">
    <rdf:RDF>
      <cc:Work
         rdf:about="">
        <dc:format>image/svg+xml</dc:format>
        <dc:type
           rdf:resource="http://purl.org/dc/dcmitype/StillImage" />
        <dc:title></dc:title>
      </cc:Work>
    </rdf:RDF>
  </metadata>
  <g
     transform="translate(76.311742,-13.94019)"
     id="layer1"
     inkscape:groupmode="layer"
     inkscape:label="Lager 1">
    <path
       sodipodi:nodetypes="ccc"
       id="path2441"
       d="m 46.345677,61.963226 -50.9698772,35.523399 -0.00783,33.761245"
       style="fill:none;stroke:#000000;stroke-width:1.17071;stroke-linecap:butt;stroke-linejoin:miter;stroke-miterlimit:4;stroke-dasharray:none;stroke-opacity:1" />
    <text
       transform="rotate(8.3919312)"
       id="text2381"
       y="3.828217"
       x="124.99954"
       style="font-size:12.8394px;line-height:1.25;font-family:sans-serif;letter-spacing:0px;word-spacing:0px;stroke-width:0.320985"
       xml:space="preserve"><tspan
         style="stroke-width:0.320985"
         y="3.828217"
         x="124.99954"
         id="tspan2379"
         sodipodi:role="line">wind direction</tspan></text>
    <path
       inkscape:label="windArrow"
       id="path1873"
       d="M 222.67903,41.497937 96.135095,25.074025"
       style="fill:none;stroke:#3e3e3e;stroke-width:0.938458;stroke-linecap:butt;stroke-linejoin:miter;stroke-miterlimit:4;stroke-dasharray:none;stroke-opacity:1;marker-end:url(#Arrow1Lend)" />
    <g
       transform="matrix(3.5413519,0,0,3.5413519,-296.47798,-295.56154)"
       inkscape:label="Turbine2"
       id="g2372">
      <path
         style="fill:url(#linearGradient1841);fill-opacity:1;stroke:none;stroke-width:0.1;stroke-linecap:butt;stroke-linejoin:miter;stroke-miterlimit:4;stroke-dasharray:none;stroke-opacity:1"
         d="m 137.49282,116.78763 c 0,0 -10.6297,-19.142948 -10.31433,-19.450124 0.31537,-0.307174 0.47283,-0.550085 0.69922,-0.528603 0.22638,0.02148 12.05962,15.815467 10.98335,19.378077 -0.34573,1.14441 2.78279,1.15692 2.78279,1.15692 0,0 20.33258,-2.31501 20.48069,-1.62044 0.14811,0.69456 -0.004,0.70375 -0.004,0.70375 0,0 -16.01143,3.69864 -16.59444,3.39924 -0.41451,-0.21286 -0.86747,1.33816 -1.57288,1.38866 -1.05456,0.0755 -3.12636,-1.55573 -3.31476,-2.19231 -0.1884,-0.63658 -1.4857,0.31012 -1.4857,0.31012 0,0 -1.88776,-0.82805 -1.82737,-1.05262 0.31182,-0.52725 0.18574,-0.89985 0.16743,-1.49267 z"
         id="path1759"
         sodipodi:nodetypes="cssscscsssccc" />
      <path
         style="fill:url(#linearGradient1839);fill-opacity:1;stroke:none;stroke-width:0.1;stroke-linecap:butt;stroke-linejoin:miter;stroke-miterlimit:4;stroke-dasharray:none;stroke-opacity:1"
         d="m 138.35472,119.95173 -0.94377,-0.42123 c 0,0 -0.41261,1.3662 -1.52876,1.21581 -1.11614,-0.15038 -10.70504,19.95245 -10.17181,20.58075 0.53324,0.62831 0.7674,0.23552 0.7674,0.23552 4.81435,-10.41423 9.85417,-17.24207 11.87694,-21.61085 z"
         id="path1761"
         sodipodi:nodetypes="ccsscc" />
      <path
         style="fill:url(#linearGradient1837);fill-opacity:1;stroke:none;stroke-width:0.1;stroke-linecap:butt;stroke-linejoin:miter;stroke-miterlimit:4;stroke-dasharray:none;stroke-opacity:1"
         d="m 141.50094,122.89091 c 0,0 -1.29752,-2.4882 -2.16273,-1.24076 -0.68178,0.98299 -0.68116,23.07761 -0.68116,23.07761 l 3.12709,-0.0103 z"
         id="path1763"
         sodipodi:nodetypes="csccc" />
    </g>
    <g
       transform="matrix(3.5413519,0,0,3.5413519,-296.47798,-295.56154)"
       inkscape:label="Turbine1"
       id="g2377">
      <path
         style="fill:url(#linearGradient1847);fill-opacity:1;stroke:none;stroke-width:0.1;stroke-linecap:butt;stroke-linejoin:miter;stroke-miterlimit:4;stroke-dasharray:none;stroke-opacity:1"
         d="M 105.29,105.94543 84.800804,94.365624 c 0,0 -0.461394,-0.773843 0.273841,-0.917964 0.735238,-0.144121 22.165355,7.34462 21.079435,11.33995 -0.21907,0.80599 2.88854,-0.0533 2.88854,-0.0533 2.08825,-2.68624 20.81879,-17.436104 21.54251,-17.337325 0.70815,0.09665 0.55197,1.079947 0.55197,1.079947 0,0 -18.16735,17.695928 -19.18888,17.286588 -0.76863,-0.308 3.74157,1.61903 3.65607,2.79523 -0.0855,1.1762 -1.28039,1.78759 -1.28039,1.78759 l -2.21163,-0.78486 c 0,0 -0.26853,-1.68043 -1.45352,-2.61205 -1.18499,-0.93163 -1.09395,-1.1493 -1.09395,-1.1493 0,0 0.87479,2.28879 0.0707,2.47532 -0.34139,0.0792 -4.3455,-2.33002 -4.3455,-2.33002 z"
         id="path1735"
         sodipodi:nodetypes="ccsssscssccscsc" />
      <path
         style="fill:url(#linearGradient1845);fill-opacity:1;stroke:none;stroke-width:0.1;stroke-linecap:butt;stroke-linejoin:miter;stroke-miterlimit:4;stroke-dasharray:none;stroke-opacity:1"
         d="m 108.41975,107.99224 -1.91605,-0.37417 c 0,0 0.3096,2.32139 -0.35284,2.41831 -2.16522,0.31682 -2.44412,22.57468 -1.21996,26.54746 0.52779,1.71283 0.85946,0.71669 0.88682,0.47209 0.54689,-4.89007 1.32683,-28.77105 2.16081,-28.18495 0.83399,0.58609 0.44126,-0.87874 0.44126,-0.87874 z"
         id="path1737"
         sodipodi:nodetypes="ccsssscc"
         sodipodi:insensitive="true" />
      <path
         style="fill:url(#linearGradient1843);fill-opacity:1;stroke:none;stroke-width:0.1;stroke-linecap:butt;stroke-linejoin:miter;stroke-miterlimit:4;stroke-dasharray:none;stroke-opacity:1"
         d="m 111.40156,111.99599 c 0,0 -1.91051,-2.96885 -2.35426,-0.0524 -0.44375,2.91648 -0.64286,33.26174 -0.64286,33.26174 l 3.71657,-0.0167 c 0,0 -0.86309,-32.68274 -0.71945,-33.19273 z"
         id="path1739" />
    </g>
    <path
       id="path2401"
       d="M 173.1315,126.23526 116.3298,114.47422"
       style="fill:none;stroke:#000000;stroke-width:0.321491;stroke-linecap:butt;stroke-linejoin:miter;stroke-miterlimit:4;stroke-dasharray:none;stroke-opacity:1;marker-end:url(#marker2405)" />
    <text
       transform="rotate(12.806209)"
       id="text2439"
       y="81.200294"
       x="132.96884"
       style="font-size:12.8394px;line-height:1.25;font-family:sans-serif;letter-spacing:0px;word-spacing:0px;stroke-width:0.320985"
       xml:space="preserve"><tspan
         style="stroke-width:0.320985"
         y="81.200294"
         x="132.96884"
         id="tspan2437"
         sodipodi:role="line">wind wake</tspan></text>
    <text
       id="text2445"
       y="149.07547"
       x="-58.318645"
       style="font-size:12.8394px;line-height:1.25;font-family:sans-serif;letter-spacing:0px;word-spacing:0px;stroke-width:0.320985"
       xml:space="preserve"><tspan
         style="text-align:center;text-anchor:middle;stroke-width:0.320985"
         y="149.07547"
         x="-58.318642"
         id="tspan2443"
         sodipodi:role="line">Blade size</tspan><tspan
         id="tspan2447"
         style="text-align:center;text-anchor:middle;stroke-width:0.320985"
         y="165.12473"
         x="-58.318645"
         sodipodi:role="line">$\mathcal B = \{\text{long}, \text{medium}, \text{short}\}$</tspan></text>
  </g>
</svg>
